<svg xmlns="http://www.w3.org/2000/svg" viewBox="0 0 663.76 497.6"><title>monochrome_light_logo</title><g id="レイヤー_2" data-name="レイヤー 2"><g id="Monochrome_Light_Logo" data-name="Monochrome Light Logo"><path d="M258,0V36.82H221.3c-.15,12.34,0,24.4-.09,36.82-4.22.23-143,.11-147.29.11V221.24c1.42,0,121.58,0,180.34-.06,2.82,0,112.83,109.37,113.81,110.1,1-2.9.67-106.9.67-110h221V184.48c-1.16,0-153.45-.12-182.73-.1-5.84,0-11.52-.83-16.78-3.43-13.83-6.85-21.05-18.12-21.47-33.49-.28-10.65-.09-84.21,0-110.33A36.91,36.91,0,0,1,392.92,2.24,36.06,36.06,0,0,1,405,0H626.67V36.86H590V73.73H442.67v36.89h4q89.31,0,178.6,0a40.73,40.73,0,0,1,15,2.47,36.51,36.51,0,0,1,23.51,33.84q.1,55.88,0,111.76c-.07,20.1-16.21,35.88-36.76,36.3-1.25,0-182.7,0-184.42,0V497.6c-1.36-1.29-2.18-2-3-2.83C374.43,429.66,239.24,294.86,237.88,295c-.86.07-133.59,0-199.08,0-6,0-11.9-.77-17.34-3.46C8,284.85.92,273.85,0,258.87c0-.29,0-.58,0-.87Q0,147.54,0,37.06A35.87,35.87,0,0,1,8.3,13.64,35.9,35.9,0,0,1,34.64.1C36.27,0,256.49,0,258,0Z"/><path d="M267.47,9.38h18.12V27.45H267.47Z"/><path d="M654.39,9.42V27.49c-6,.33-12,.11-18.14.15V9.42Z"/><path d="M230.63,64.12V46.27h18.08V64.08C246.5,64.67,233.35,64.72,230.63,64.12Z"/><path d="M599.41,46.22h17.71c.62,2,.78,14.46.21,18.13H599.41Z"/></g></g></svg>