<svg xmlns="http://www.w3.org/2000/svg" viewBox="0 0 1576.99 498.19"><defs><style>.cls-1{fill:#fff;}.cls-2,.cls-3{fill:#231815;}.cls-2{stroke:#fff;stroke-miterlimit:10;}.cls-4{fill:#639434;}.cls-5{fill:#639433;}</style></defs><title>color_logotype</title><g id="レイヤー_2" data-name="レイヤー 2"><g id="Color_Logotype" data-name="Color Logotype"><rect class="cls-1" x="30.33" y="30.33" width="437.53" height="437.53"/><path class="cls-2" d="M.5.5V497.69H497.69V.5ZM467.86,467.86H30.33V30.33H467.86Z"/><rect class="cls-3" x="60.16" y="380.85" width="57.18" height="57.18"/><rect class="cls-4" x="60.16" y="60.16" width="174.02" height="174.02"/><rect class="cls-4" x="264.01" y="60.16" width="174.02" height="174.02"/><polygon class="cls-5" points="60.16 264.01 60.16 351.02 147.17 351.02 147.17 438.03 234.18 438.03 234.18 264.01 60.16 264.01"/><path class="cls-3" d="M571.09,353.9c0-6.65,3.15-9.8,9.81-9.8h8.75c6.65,0,9.8,3.15,9.8,9.8v18.9c0,6.3-3.15,9.8-9.8,9.8H580.9c-6.66,0-9.81-3.5-9.81-9.8Z"/><path class="cls-3" d="M656.49,374.55V147.05c0-7,4.21-11.2,11.55-11.2h63c52.15,0,79.8,23.45,79.8,67.9V220.2c0,44.1-27.65,67.9-79.8,67.9H677.49v86.45c0,3.85-2.45,6.3-6.65,6.3h-8.05A5.89,5.89,0,0,1,656.49,374.55ZM731.05,270.6c38.5,0,58.45-16.8,58.45-49.7V203.05c0-32.9-20-49.7-58.45-49.7H677.49V270.6Z"/><path class="cls-3" d="M859.49,344.1v-203c0-5.25,3.5-8.75,8.75-8.75H871c5.6,0,9.1,3.5,9.1,8.75V342.7c0,15.75,3.85,20.65,17.85,20.65h12.25c3.5,0,6,2.1,6,5.25v6.3a5.7,5.7,0,0,1-6,6h-13.3C868.94,380.85,859.49,370.7,859.49,344.1Z"/><path class="cls-3" d="M940,336.05V332.2c0-32.55,22-49.7,65.8-49.7,14.7,0,28.7,1.75,45.5,5.95v-28c0-26.25-13.65-39.2-43.75-39.2-31.15,0-42,12.25-42,33.6v2.8A4.23,4.23,0,0,1,961,262.2H950.84c-3.15,0-4.9-1.75-4.9-4.9v-2.45c0-31.85,19.25-50.4,61.6-50.4,42,0,64.41,19.25,64.41,56.7v81.9l22,22.05c3.5,3.5,3.86,8,.36,11.55l-2.81,2.8c-3.5,3.5-8,3.15-11.55-.35l-22.4-22.4c-9.8,17.15-29.75,27.65-55.65,27.65C961.69,384.35,940,365.8,940,336.05Zm64,31.85c28.7,0,47.25-15.75,47.25-38.15V303.5c-16.8-4.2-29.4-5.95-44.1-5.95-30.8,0-46.9,11.2-46.9,33.6v4.55C960.29,356,975,367.9,1004,367.9Z"/><path class="cls-3" d="M1144.74,374.55V245.75l-22-22.05c-3.5-3.5-4.2-8-.7-11.55l2.8-2.8c3.5-3.5,8-2.8,11.55.7l23.1,23.1c10.15-18.55,28.7-28.7,53.9-28.7,41.3,0,65.8,24.5,65.8,65.8v104.3a5.88,5.88,0,0,1-6.3,6.3h-7.7c-4.2,0-6.65-2.45-6.65-6.3V270.25c0-31.15-16.45-48.65-46.55-48.65s-46.55,17.15-46.55,48.65v104.3c0,3.85-2.45,6.3-6.65,6.3H1151A5.88,5.88,0,0,1,1144.74,374.55Z"/><path class="cls-3" d="M1349.14,334.65V225.45h-28.7a5.62,5.62,0,0,1-6-5.6v-6.3c0-3.15,2.45-5.25,6-5.25h28.7V163.5c0-4.9,3.15-8.4,8.4-8.4h4.2c4.9,0,8,3.5,8,8.4v44.8h44.45c3.5,0,5.6,2.1,5.6,5.25v6.3a5.33,5.33,0,0,1-5.6,5.6h-44.45V334.3c0,21.7,7,29.05,26.25,29.05h18.2a5.33,5.33,0,0,1,5.6,5.6v5.95c0,3.5-2.1,6-5.95,6h-18.2C1362.09,380.85,1349.14,367.9,1349.14,334.65Z"/><path class="cls-3" d="M1447.14,338.5v-7.35a4.23,4.23,0,0,1,4.55-4.55h10.15a4.23,4.23,0,0,1,4.55,4.55v7c0,20,15.4,30.1,45.15,30.1,30.1,0,45.5-12.25,45.5-32.55v-3.5c0-18.9-11.2-23.45-29.75-26.25l-34-4.9c-30.8-4.55-45.85-15.75-45.85-43.05v-3.15c0-30.45,21.7-50.4,63.7-50.4,40.6,0,62.3,16.45,62.3,45.85v4.9a4.23,4.23,0,0,1-4.55,4.55h-10.5c-2.8,0-4.2-1.75-4.2-4.55v-4.9c0-19.6-15-29.4-43-29.4-29.4,0-43.75,11.9-43.75,31.85v3.5c0,18.9,11.2,23.45,29.75,26.25l34,4.9c30.8,4.55,45.85,15.75,45.85,43.05V334c0,30.45-22.4,50.4-65.45,50.4C1469.19,384.35,1447.14,368.25,1447.14,338.5Z"/></g></g></svg>